<svg xmlns="http://www.w3.org/2000/svg" width="800" height="56" viewBox="0 0 800 56" class="WaveDrom"><g transform="translate(0.5,0.5)" text-anchor="middle" font-size="14" font-family="sans-serif" font-weight="normal"><g transform="translate(4,21)"><g stroke="black" stroke-width="1" stroke-linecap="round"><line x2="791"/><line x2="791" y1="31" y2="31"/><line y2="31"/><line x1="791" x2="791" y2="31"/><line x1="678" x2="678" y2="31"/><line x1="565" x2="565" y2="31"/><line x1="452" x2="452" y2="31"/><line x1="339" x2="339" y2="31"/><line x1="226" x2="226" y2="3"/><line x1="226" x2="226" y1="31" y2="28"/><line x1="113" x2="113" y2="3"/><line x1="113" x2="113" y1="31" y2="28"/></g><g><g><rect x="678" width="113" height="31" style="fill-opacity:0.1;fill:hsl(0,100%,50%)"/><rect x="565" width="113" height="31" style="fill-opacity:0.1;fill:hsl(45,100%,50%)"/><rect x="452" width="113" height="31" style="fill-opacity:0.1;fill:hsl(45,100%,50%)"/><rect x="339" width="113" height="31" style="fill-opacity:0.1;fill:hsl(45,100%,50%)"/></g><g transform="translate(57,-11)"><g transform="translate(678)"><text y="6">0</text></g><g transform="translate(565)"><text y="6">1</text></g><g transform="translate(452)"><text y="6">2</text></g><g transform="translate(339)"><text y="6">3</text></g><g transform="translate(226)"><text y="6">4</text></g><g transform="translate(0)"><text y="6">6</text></g></g><g transform="translate(57,15)"><g transform="translate(678)"><text y="6"><tspan>0</tspan></text></g><g transform="translate(565)"><text y="6"><tspan>p</tspan></text></g><g transform="translate(452)"><text y="6"><tspan>z</tspan></text></g><g transform="translate(339)"><text y="6"><tspan>n</tspan></text></g><g transform="translate(113)"><text y="6"><tspan>011</tspan></text></g></g><g transform="translate(57,39)"/></g></g></g></svg>